<?xml version="1.0"?>
<svg xmlns="http://www.w3.org/2000/svg" height="512px" viewBox="-9 0 444 444.8" width="512px"><path d="m213.199219 380.800781c61.855469 0 112-50.144531 112-112s-50.144531-112-112-112-112 50.144531-112 112c.066406 61.828125 50.171875 111.933594 112 112zm-40-160c-4.417969 0-8-3.582031-8-8s3.582031-8 8-8h24v-8c0-4.417969 3.582031-8 8-8s8 3.582031 8 8v8h8v-8c0-4.417969 3.582031-8 8-8s8 3.582031 8 8v9.136719c10.515625 2.625 18.957031 10.445312 22.378906 20.726562 3.421875 10.285157 1.351563 21.601563-5.488281 30.007813 17 7.894531 26.21875 26.554687 22.160156 44.855469-4.058594 18.296875-20.304688 31.308594-39.050781 31.273437v8c0 4.417969-3.582031 8-8 8s-8-3.582031-8-8v-8h-8v8c0 4.417969-3.582031 8-8 8s-8-3.582031-8-8v-8h-24c-4.417969 0-8-3.582031-8-8s3.582031-8 8-8h8v-96zm0 0" fill="#004d4d"/><path d="m261.199219 292.800781c0-13.253906-10.746094-24-24-24h-40v48h40c13.253906 0 24-10.746093 24-24zm0 0" fill="#004d4d"/><path d="m245.199219 236.800781c0-8.835937-7.164063-16-16-16h-32v32h32c8.835937 0 16-7.164062 16-16zm0 0" fill="#004d4d"/><path d="m325.199219 44.800781v44.605469l32 32v-76.605469zm0 0" fill="#004d4d"/><path d="m397.199219 444.800781v-224c0-4.417969 3.582031-8 8-8h20.800781l-212.800781-212.800781-212.800781 212.800781h20.800781c4.417969 0 8 3.582031 8 8v224zm-184-304c70.691406 0 128 57.308594 128 128 0 70.691407-57.308594 128-128 128-70.691407 0-128-57.308593-128-128 .085937-70.660156 57.34375-127.917969 128-128zm0 0" fill="#004d4d"/></svg>
