<?xml version="1.0" encoding="iso-8859-1"?>
<!-- Generator: Adobe Illustrator 19.0.0, SVG Export Plug-In . SVG Version: 6.00 Build 0)  -->
<svg height="512px" width="512px" version="1.1" id="Capa_1" xmlns="http://www.w3.org/2000/svg" x="0px" y="0px"
	 viewBox="0 0 512 512" style="enable-background:new 0 0 512 512;" xml:space="preserve">
<rect y="472.084" style="fill:#33ff33;" width="512" height="16"/>
<g>
	
		<rect x="125.545" y="325.352" transform="matrix(-0.3045 0.9525 -0.9525 -0.3045 690.3679 154.6175)" style="fill:#ffffff;" width="326.38" height="8"/>
	
		<rect x="436.767" y="166.161" transform="matrix(-0.9523 0.3051 -0.3051 -0.9523 961.0038 508.5157)" style="fill:#ffffff;" width="8" height="326.378"/>
	<polygon style="fill:#ffffff;" points="474.288,441.228 288.768,320.26 412.048,238.556 416.472,245.228 303.328,320.212 
		478.664,434.524 	"/>
	<polygon style="fill:#ffffff;" points="255.232,441.228 250.856,434.524 426.192,320.212 313.056,245.228 317.48,238.556 
		440.76,320.26 	"/>
	<path style="fill:#ffffff;" d="M364.76,188.052c-26.472,0-48-21.536-48-48.008s21.528-48.008,48-48.008
		s48.008,21.536,48.008,48.008S391.224,188.052,364.76,188.052z M364.76,100.036c-22.056,0-40,17.944-40,40.008
		s17.944,40.008,40,40.008c22.064,0,40.008-17.944,40.008-40.008S386.824,100.036,364.76,100.036z"/>
</g>
<!--<circle style="fill:#000000;" cx="364.76" cy="140.044" r="15.256"/>-->
<!--<g>
	<path style="fill:#666666;" d="M364.76,220.796c-44.52,0-80.752-36.224-80.752-80.752s36.224-80.752,80.752-80.752
		s80.76,36.224,80.76,80.752S409.288,220.796,364.76,220.796z M364.76,67.292c-40.12,0-72.752,32.632-72.752,72.752
		s32.632,72.752,72.752,72.752s72.76-32.632,72.76-72.752S404.872,67.292,364.76,67.292z"/>
	<path style="fill:#666666;" d="M364.76,256.172c-64.032,0-116.128-52.096-116.128-116.128S300.728,23.916,364.76,23.916
		c64.04,0,116.136,52.096,116.136,116.128S428.8,256.172,364.76,256.172z M364.76,31.916c-59.616,0-108.128,48.504-108.128,108.128
		s48.512,108.128,108.128,108.128c59.624,0,108.136-48.504,108.136-108.128S424.384,31.916,364.76,31.916z"/>
</g>-->
<polygon style="fill:#800000;" points="44.416,487.468 44.416,313.14 158.736,230.82 273.056,313.14 273.056,487.468 "/>
<polygon style="fill:#ff3333;" points="158.736,200.908 21.424,299.108 21.424,330.5 158.736,232.292 296.04,330.5 296.04,299.108 
	"/>

</svg>
