<?xml version="1.0" encoding="iso-8859-1"?>
<!-- Generator: Adobe Illustrator 19.0.0, SVG Export Plug-In . SVG Version: 6.00 Build 0)  -->
<svg height="512px" width="512px" version="1.1" id="Layer_1" xmlns="http://www.w3.org/2000/svg" xmlns:xlink="http://www.w3.org/1999/xlink" x="0px" y="0px"
	 viewBox="0 0 457.896 457.896" style="enable-background:new 0 0 457.896 457.896;" xml:space="preserve">
<path style="fill:#F0EDE5;" d="M253.172,97.896l4.944,20.224L228.948,140l-29.168-21.88l4.944-20.224l-15.544-3.8l-88,360
	l15.544,3.8l1.576-6.456l110.648-72.344l110.648,72.344l1.576,6.456l15.544-3.8l-88-360L253.172,97.896z M262.252,135.024
	l8.968,36.688l-28.936-21.704L262.252,135.024z M180.692,196.184L228.948,160l48.256,36.192l4.448,18.208l-52.704,38.824
	l-52.704-38.832L180.692,196.184z M215.468,263.16l-62.376,45.968l19.04-77.896L215.468,263.16z M228.948,273.088l62.48,46.04
	l-62.48,40.856l-62.48-40.856L228.948,273.088z M242.428,263.16l43.336-31.936l19.04,77.896L242.428,263.16z M215.62,150
	l-28.936,21.704l8.968-36.688L215.62,150z M123.86,428.696l23.304-95.344l5.56-4.096l61.608,40.28L123.86,428.696z M243.564,369.536
	l61.608-40.28l5.56,4.096l23.304,95.344L243.564,369.536z"/>
<!-- 

Disegno il pallino manualmente
<path style="fill:#F9BA48;" d="M228.948,112c-30.872,0-56-25.128-56-56s25.128-56,56-56s56,25.128,56,56S259.82,112,228.948,112z"/>


-->
<g>
</g>
<g>
</g>
<g>
</g>
<g>
</g>
<g>
</g>
<g>
</g>
<g>
</g>
<g>
</g>
<g>
</g>
<g>
</g>
<g>
</g>
<g>
</g>
<g>
</g>
<g>
</g>
<g>
</g>
</svg>
